<svg width="131" height="87" fill="none" xmlns="http://www.w3.org/2000/svg"><path d="M60.13 87H.25V74.4l21.5-21.74c6.37-6.52 10.53-11.03 12.48-13.53a30.35 30.35 0 0 0 4.22-7.03 17.83 17.83 0 0 0 1.3-6.68c0-3.44-.96-6-2.88-7.68-1.87-1.68-4.4-2.52-7.56-2.52-3.32 0-6.54.76-9.67 2.29A49.9 49.9 0 0 0 9.86 24L.02 12.35c4.21-3.6 7.71-6.13 10.48-7.62a37.62 37.62 0 0 1 9.09-3.4A45.48 45.48 0 0 1 30.6.12c5.35 0 10.08.97 14.18 2.93a22.62 22.62 0 0 1 9.55 8.2 21.8 21.8 0 0 1 3.4 12.07c0 3.94-.7 7.65-2.1 11.13a41.7 41.7 0 0 1-6.45 10.6c-2.9 3.64-8.01 8.82-15.36 15.53L22.81 70.95v.82h37.32V87Zm70.5-17.75H120.3V87h-17.7V69.25H66.05v-12.6l37.56-55.31h16.7v53.84h10.31v14.07ZM102.6 55.18V40.65c0-2.42.1-5.94.3-10.54.2-4.61.35-7.29.47-8.03h-.47a65.3 65.3 0 0 1-5.22 9.37L82 55.18h20.62Z" fill="#D22856"/></svg>